<svg width="14" height="14" viewBox="0 0 14 14" fill="none" xmlns="http://www.w3.org/2000/svg">
<path d="M10.586 5.65741L6.636 1.70741C6.45384 1.5188 6.35305 1.2662 6.35533 1.00401C6.3576 0.741809 6.46277 0.490997 6.64818 0.305589C6.83359 0.12018 7.0844 0.0150115 7.3466 0.0127331C7.6088 0.0104547 7.8614 0.111249 8.05 0.293407L13.707 5.95041C13.8002 6.04306 13.8741 6.15322 13.9246 6.27455C13.9751 6.39589 14.001 6.526 14.001 6.65741C14.001 6.78882 13.9751 6.91893 13.9246 7.04026C13.8741 7.16159 13.8002 7.27175 13.707 7.36441L8.05 13.0214C7.95775 13.1169 7.84741 13.1931 7.7254 13.2455C7.6034 13.2979 7.47218 13.3255 7.3394 13.3267C7.20662 13.3278 7.07494 13.3025 6.95205 13.2522C6.82915 13.2019 6.7175 13.1277 6.62361 13.0338C6.52971 12.9399 6.45546 12.8283 6.40518 12.7054C6.3549 12.5825 6.3296 12.4508 6.33075 12.318C6.3319 12.1852 6.35949 12.054 6.4119 11.932C6.46431 11.81 6.54049 11.6997 6.636 11.6074L10.586 7.65741H1C0.734784 7.65741 0.48043 7.55205 0.292893 7.36451C0.105357 7.17698 0 6.92262 0 6.65741C0 6.39219 0.105357 6.13784 0.292893 5.9503C0.48043 5.76276 0.734784 5.65741 1 5.65741H10.586Z" fill="#6DCFD0"/>
</svg>
