<svg width="24" height="25" viewBox="0 0 24 25" fill="none" xmlns="http://www.w3.org/2000/svg">
<path d="M11.8945 1.1249C11.2594 1.1249 10.7445 1.63977 10.7445 2.2749V22.7455C10.7445 23.3806 11.2594 23.8955 11.8945 23.8955H12.3913C13.0264 23.8955 13.5413 23.3806 13.5413 22.7455V2.2749C13.5413 1.63977 13.0264 1.1249 12.3913 1.1249H11.8945Z" fill="#6F6C90" stroke="#6F6C90" stroke-width="0.3" stroke-linecap="round"/>
<path d="M1.9082 11.1117C1.27308 11.1117 0.758203 11.6266 0.758203 12.2617V12.7584C0.758203 13.3936 1.27307 13.9084 1.9082 13.9084H22.3788C23.0139 13.9084 23.5288 13.3936 23.5288 12.7584V12.2617C23.5288 11.6266 23.0139 11.1117 22.3788 11.1117H1.9082Z" fill="#6F6C90" stroke="#6F6C90" stroke-width="0.3" stroke-linecap="round"/>
</svg>
