<svg width="69" height="73" viewBox="0 0 69 73" fill="none" xmlns="http://www.w3.org/2000/svg">
<path fill-rule="evenodd" clip-rule="evenodd" d="M13.2277 22.9864C14.3112 22.7246 15.4187 22.5928 16.5296 22.5934C25.3271 22.5934 32.4568 30.7414 32.4568 40.7884C32.4568 50.8384 25.3271 58.9864 16.5296 58.9864C7.73211 58.9864 0.599609 50.8414 0.599609 40.7884C0.599609 40.4944 0.605234 40.1974 0.619297 39.9034H0.599609C0.599609 24.7384 11.3996 12.3994 24.6746 12.3994V18.5074C20.3687 18.5074 16.3974 20.1814 13.2277 22.9864ZM48.8734 22.9864C49.9365 22.7284 51.039 22.5934 52.1696 22.5934C60.9671 22.5934 68.0996 30.7414 68.0996 40.7884C68.0996 50.8384 60.9671 58.9864 52.1696 58.9864C43.3721 58.9864 36.2424 50.8414 36.2424 40.7884C36.2424 40.4944 36.248 40.1974 36.2621 39.9034H36.2424C36.2424 24.7384 47.0424 12.3994 60.3174 12.3994V18.5074C56.0087 18.5074 52.043 20.1814 48.8734 22.9864Z" fill="#FF7E1D"/>
</svg>
